<svg xmlns="http://www.w3.org/2000/svg" xmlns:xlink="http://www.w3.org/1999/xlink" viewBox="0 0 356 356"><defs><linearGradient id="a" x1="178" x2="178" y2="356" gradientUnits="userSpaceOnUse"><stop offset="0" stop-color="#012e40"/><stop offset="1" stop-color="#06090e"/></linearGradient></defs><rect width="356" height="356" rx="178" fill="url(#a)"/><path d="M268.7,213.4l22.9,7.6A72.3,72.3,0,0,1,267,243.5a58.5,58.5,0,0,1-15.7,6.2,61.1,61.1,0,0,1-17.2,2.3c-19.1,0-35.1-6.9-48.5-20.3s-20.3-29.5-20.3-48.6,6.7-35.1,20.3-48.5,29.4-20.3,48.5-20.3a68,68,0,0,1,26.9,5.3,56,56,0,0,1,12.2,6.8c9.6,7.8,1.3,16.5,1.3,16.5s-7,8.1-16.3,1.2c-6.7-5-15.1-6.7-24.1-6.7a44.2,44.2,0,0,0-32.5,13.4c-9,8.9-13.3,19.8-13.3,32.3s4.3,23.6,13.3,32.6,20,13.2,32.5,13.2a46.3,46.3,0,0,0,19.1-4A46.8,46.8,0,0,0,268.7,213.4Z" transform="translate(-2 -2)" fill="#05dbf2"/><path d="M77.9,186.3a43.8,43.8,0,0,1-8.1-26c0-12.6,4.5-23.2,13.4-32.4a44.5,44.5,0,0,1,32.4-13.4h40.6l1.8.5a6.9,6.9,0,0,1,2.5,1,12.1,12.1,0,0,1,.8,19.8,6.8,6.8,0,0,1-2.6,1.2l-1.9.6H115.6a21.8,21.8,0,0,0-16,6.7,22.3,22.3,0,0,0,0,32.3,21.9,21.9,0,0,0,16,6.8l20.5-.2-40,69H69.8L98,202.8A44.5,44.5,0,0,1,77.9,186.3Z" transform="translate(-2 -2)" fill="#05dbf2"/><path d="M266.7,172.8H240.4a10.3,10.3,0,0,0,0,20.6h26.3a10.3,10.3,0,1,0,0-20.6Z" transform="translate(-2 -2)" fill="#bf0426"/><path d="M179.7,47.8a20,20,0,1,0,19.9,19.9A19.9,19.9,0,0,0,179.7,47.8Zm0,30.9a11,11,0,1,1,10.9-11A10.9,10.9,0,0,1,179.7,78.7Z" transform="translate(-2 -2)" fill="#bf0426"/><text transform="translate(123.2 311)" font-size="77.2" fill="#bf0426" font-family="AristaProTrial-SemiBold, Arista Pro Trial" font-weight="600">o</text></svg>